ffmpeg version 3.4.8-0ubuntu0.2 Copyright (c) 2000-2020 the FFmpeg developers
  built with gcc 7 (Ubuntu 7.5.0-3ubuntu1~18.04)
  configuration: --prefix=/usr --extra-version=0ubuntu0.2 --toolchain=hardened --libdir=/usr/lib/x86_64-linux-gnu --incdir=/usr/include/x86_64-linux-gnu --enable-gpl --disable-stripping --enable-avresample --enable-avisynth --enable-gnutls --enable-ladspa --enable-libass --enable-libbluray --enable-libbs2b --enable-libcaca --enable-libcdio --enable-libflite --enable-libfontconfig --enable-libfreetype --enable-libfribidi --enable-libgme --enable-libgsm --enable-libmp3lame --enable-libmysofa --enable-libopenjpeg --enable-libopenmpt --enable-libopus --enable-libpulse --enable-librubberband --enable-librsvg --enable-libshine --enable-libsnappy --enable-libsoxr --enable-libspeex --enable-libssh --enable-libtheora --enable-libtwolame --enable-libvorbis --enable-libvpx --enable-libwavpack --enable-libwebp --enable-libx265 --enable-libxml2 --enable-libxvid --enable-libzmq --enable-libzvbi --enable-omx --enable-openal --enable-opengl --enable-sdl2 --enable-libdc1394 --enable-libdrm --enable-libiec61883 --enable-chromaprint --enable-frei0r --enable-libopencv --enable-libx264 --enable-shared
  libavutil      55. 78.100 / 55. 78.100
  libavcodec     57.107.100 / 57.107.100
  libavformat    57. 83.100 / 57. 83.100
  libavdevice    57. 10.100 / 57. 10.100
  libavfilter     6.107.100 /  6.107.100
  libavresample   3.  7.  0 /  3.  7.  0
  libswscale      4.  8.100 /  4.  8.100
  libswresample   2.  9.100 /  2.  9.100
  libpostproc    54.  7.100 / 54.  7.100
[rawvideo @ 0x562cc0f1ca20] Estimating duration from bitrate, this may be inaccurate
Input #0, rawvideo, from '../../SVC-Encoder-20220109T061506Z-001/SVC-Encoder/Dataset/RollerCoaster/6f_2x2/tile_yuv/f2_t3_480x480.yuv':
  Duration: 00:00:10.00, start: 0.000000, bitrate: 82944 kb/s
    Stream #0:0: Video: rawvideo (I420 / 0x30323449), yuv420p, 480x480, 82944 kb/s, 30 tbr, 30 tbn, 30 tbc
Stream mapping:
  Stream #0:0 -> #0:0 (rawvideo (native) -> h264 (libx264))
Press [q] to stop, [?] for help
[libx264 @ 0x562cc0f29c60] using cpu capabilities: MMX2 SSE2Fast LZCNT SSSE3 SSE4.2 AVX
[libx264 @ 0x562cc0f29c60] profile High, level 3.0
Output #0, rawvideo, to 'RollerCoaster_f2_t3_480x480_x264_QP_28.h264':
  Metadata:
    encoder         : Lavf57.83.100
    Stream #0:0: Video: h264 (libx264), yuv420p, 480x480, q=-1--1, 30 fps, 30 tbn, 30 tbc
    Metadata:
      encoder         : Lavc57.107.100 libx264
    Side data:
      cpb: bitrate max/min/avg: 0/0/0 buffer size: 0 vbv_delay: -1
frame=  300 fps=0.0 q=34.0 LPSNR=Y:inf U:inf V:inf *:inf size=      12kB time=00:00:09.93 bitrate=   9.7kbits/s speed=29.7x    
video:12kB audio:0kB subtitle:0kB other streams:0kB global headers:0kB muxing overhead: 0.000000%
[libx264 @ 0x562cc0f29c60] frame I:2     Avg QP:26.54  size:  1108  PSNR Mean Y:52.49 U:54.91 V:53.91 Avg:53.01 Global:52.98
[libx264 @ 0x562cc0f29c60] frame P:76    Avg QP:27.78  size:    78  PSNR Mean Y:51.86 U:53.89 V:52.84 Avg:52.27 Global:52.24
[libx264 @ 0x562cc0f29c60] frame B:222   Avg QP:33.35  size:    18  PSNR Mean Y:51.90 U:53.91 V:52.83 Avg:52.32 Global:52.30
[libx264 @ 0x562cc0f29c60] consecutive B-frames:  1.3%  0.0%  0.0% 98.7%
[libx264 @ 0x562cc0f29c60] mb I  I16..4: 98.6%  1.4%  0.0%
[libx264 @ 0x562cc0f29c60] mb P  I16..4:  1.1%  0.1%  0.0%  P16..4:  2.4%  0.3%  0.0%  0.0%  0.0%    skip:96.2%
[libx264 @ 0x562cc0f29c60] mb B  I16..4:  0.0%  0.0%  0.0%  B16..8:  0.0%  0.0%  0.0%  direct: 0.0%  skip:100.0%  L0:26.5% L1:73.5% BI: 0.0%
[libx264 @ 0x562cc0f29c60] 8x8 transform intra:2.9% inter:58.3%
[libx264 @ 0x562cc0f29c60] coded y,uvDC,uvAC intra: 0.3% 6.1% 0.0% inter: 0.0% 0.0% 0.0%
[libx264 @ 0x562cc0f29c60] i16 v,h,dc,p: 76% 10%  8%  7%
[libx264 @ 0x562cc0f29c60] i8 v,h,dc,ddl,ddr,vr,hd,vl,hu:  8%  1% 89%  0%  0%  1%  0%  1%  0%
[libx264 @ 0x562cc0f29c60] i4 v,h,dc,ddl,ddr,vr,hd,vl,hu: 28%  5% 32%  6%  9%  8%  4%  4%  5%
[libx264 @ 0x562cc0f29c60] i8c dc,h,v,p: 89%  5%  7%  0%
[libx264 @ 0x562cc0f29c60] Weighted P-Frames: Y:0.0% UV:0.0%
[libx264 @ 0x562cc0f29c60] ref P L0: 85.2%  5.2%  8.0%  1.6%
[libx264 @ 0x562cc0f29c60] ref B L0: 69.2% 26.9%  3.8%
[libx264 @ 0x562cc0f29c60] ref B L1: 83.3% 16.7%
[libx264 @ 0x562cc0f29c60] PSNR Mean Y:51.894 U:53.909 V:52.844 Avg:52.310 Global:52.288 kb/s:9.65
